<svg xmlns:dc="http://purl.org/dc/elements/1.1/" xmlns:cc="http://creativecommons.org/ns#" xmlns:rdf="http://www.w3.org/1999/02/22-rdf-syntax-ns#" xmlns:svg="http://www.w3.org/2000/svg" xmlns="http://www.w3.org/2000/svg" viewBox="0 0 1122.52 793.70667" height="793.70667" width="1122.52" xml:space="preserve" id="svg2"><metadata></metadata><defs id="defs6"><clipPath id="clipPath18" clipPathUnits="userSpaceOnUse"><path id="path16" d="M 0,595.28 H 841.89 V 0 H 0 Z"></path></clipPath><clipPath id="clipPath26" clipPathUnits="userSpaceOnUse"><path id="path24" d="M 272.402,539.684 H 577.638 V 55.2513 H 272.402 Z"></path></clipPath></defs><g transform="matrix(1.3333333,0,0,-1.3333333,0,793.70667)" id="g10"><g id="g12"><g clip-path="url(#clipPath18)" id="g14"><g id="g20"><g id="g22"></g><g id="g70"><g style="opacity:0.39999402" id="g68" clip-path="url(#clipPath26)"><g id="g30" transform="translate(374.5805,436.7161)"><path id="path28" style="fill:none;stroke:#3f4096;stroke-width:10;stroke-linecap:butt;stroke-linejoin:miter;stroke-miterlimit:10;stroke-dasharray:none;stroke-opacity:1" d="M 0,0 C 0,0 -15.02,17.304 -14.685,29.969 -14.35,42.634 -5.392,52.761 1.391,52.534 8.174,52.307 17.2,44.479 16.788,28.914 16.375,13.35 0,0 0,0 Z"></path></g><g id="g34" transform="translate(391.8458,511.4337)"><path id="path32" style="fill:none;stroke:#3f4096;stroke-width:10;stroke-linecap:butt;stroke-linejoin:miter;stroke-miterlimit:10;stroke-dasharray:none;stroke-opacity:1" d="m 0,0 c -0.332,-12.534 -7.921,-22.45 -16.951,-22.147 -9.03,0.302 -16.08,10.708 -15.748,23.243 0.331,12.534 7.921,22.45 16.95,22.147 C -6.719,22.941 0.332,12.534 0,0 Z"></path></g><g id="g38" transform="translate(386.0278,189.7183)"><path id="path36" style="fill:none;stroke:#3f4096;stroke-width:10;stroke-linecap:round;stroke-linejoin:miter;stroke-miterlimit:10;stroke-dasharray:none;stroke-opacity:1" d="m 0,0 c 0,0 26.338,-0.698 26.833,-23.262 0.496,-22.565 -8.335,-36.567 -43.137,-32.69 -33.942,3.78 -42.771,41.545 -40.219,68.505 1.736,18.336 17.04,65.432 80.399,63.309 63.36,-2.123 74.158,-76.531 71.36,-117.598 -2.56,-37.59 -31.478,-90.357 -112.876,-87.629 -89.941,3.014 -104.919,111.744 -80.547,165.042 24.372,53.298 71.266,103.791 81.667,138.698 10.4,34.908 5.073,72.623 5.073,72.623"></path></g><g id="g42" transform="translate(468.7728,245.2743)"><path id="path40" style="fill:none;stroke:#3f4096;stroke-width:10;stroke-linecap:round;stroke-linejoin:miter;stroke-miterlimit:10;stroke-dasharray:none;stroke-opacity:1" d="m 0,0 h 63.988 c 0,0 -45.179,-43.992 -41.419,-120.254 3.248,-65.878 81.296,-58.803 81.296,-58.803"></path></g><g id="g46" transform="translate(407.8227,349.1839)"><path id="path44" style="fill:#3f4096;fill-opacity:1;fill-rule:nonzero;stroke:none" d="m 0,0 c 0.09,-4.085 -2.847,-7.48 -6.559,-7.584 -3.713,-0.103 -6.795,3.125 -6.885,7.21 -0.09,4.085 2.847,7.481 6.56,7.584 C -3.172,7.313 -0.09,4.085 0,0"></path></g><g id="g50" transform="translate(412.6219,322.7429)"><path id="path48" style="fill:#3f4096;fill-opacity:1;fill-rule:nonzero;stroke:none" d="m 0,0 c -2.314,-0.302 -2.187,-15.245 -0.412,-19.23 1.775,-3.985 9.761,-8.57 9.761,-8.57 0,0 -3.643,-0.655 -6.44,-1.365 -2.798,-0.711 -4.945,-2.194 -4.945,-2.194 0,0 8.192,-4.756 7.584,-5.881 -0.609,-1.124 -18.229,0.68 -25.442,-0.707 -7.213,-1.387 -9.58,-2.481 -12.511,-3.512 -2.931,-1.03 -9.054,-0.805 -9.15,3.543 -0.095,4.348 1.707,6.945 8.24,9.089 6.229,2.044 7.538,2.101 7.538,2.101 l 0.919,0.269 c 0,0 5.165,4.969 5.92,12.189 0.756,7.219 -0.351,12.805 -0.794,13.742 -0.442,0.937 -2.131,0.969 -3.472,-1.995 -1.341,-2.964 -1.574,-5.186 -3.272,-7.922 -1.698,-2.737 -5.448,-4.898 -9.065,-3.496 -3.618,1.403 -5.953,5.293 -9.658,10.648 -3.704,5.355 -5.328,8.87 -5.555,9.575 -0.226,0.706 0.28,0.087 1.141,-0.68 0.86,-0.767 2.021,-2.396 2.44,-2.226 0.418,0.17 1.017,1.69 1.989,2.27 0.972,0.581 1.558,-0.51 1.558,-0.51 0,0 -2.53,-0.07 -2.144,-1.642 0.387,-1.571 1.667,-2.247 1.667,-2.247 0,0 1.12,0.268 1.304,1.46 0.185,1.191 0.427,3.013 0.577,2.547 0,0 0.752,-2.194 1.008,-4.244 0.256,-2.049 0.085,-3.873 0.085,-3.873 0,0 2.399,-3.572 4.055,-5.346 1.657,-1.773 4.624,-2.403 5.311,-1.672 0.688,0.732 2.782,8.431 4.354,13.095 2.03,6.022 9.576,13.519 16.992,13.524"></path></g><g id="g54" transform="translate(418.0368,290.726)"><path id="path52" style="fill:#3f4096;fill-opacity:1;fill-rule:nonzero;stroke:none" d="m 0,0 c 0,0 9.767,-4.557 8.677,-7.746 -1.09,-3.188 -12.072,-0.617 -18.77,-1.349 -6.698,-0.732 -10.591,-2.457 -10.436,-2.827 0.156,-0.369 11.863,1.772 20.577,-0.32 8.713,-2.093 17.768,-3.077 19.196,1.357 1.429,4.434 -0.914,8.282 -7.357,9.82 C 5.445,0.472 0,0 0,0"></path></g><g id="g58" transform="translate(407.8227,349.1839)"><path id="path56" style="fill:#3f4096;fill-opacity:1;fill-rule:nonzero;stroke:none" d="m 0,0 c 0.09,-4.085 -2.847,-7.48 -6.559,-7.584 -3.713,-0.103 -6.795,3.125 -6.885,7.21 -0.09,4.085 2.847,7.481 6.56,7.584 C -3.172,7.313 -0.09,4.085 0,0"></path></g><g id="g62" transform="translate(402.6595,307.6315)"><path id="path60" style="fill:#3f4096;fill-opacity:1;fill-rule:nonzero;stroke:none" d="m 0,0 h -0.422 l -8.553,0.843 c 0.755,7.22 -0.352,12.805 -0.794,13.742 -0.443,0.937 -2.131,0.969 -3.473,-1.995 -1.341,-2.964 -1.573,-5.185 -3.271,-7.922 -1.698,-2.737 -5.448,-4.898 -9.066,-3.495 -3.617,1.402 -5.953,5.292 -9.657,10.647 -3.704,5.356 -5.329,8.87 -5.555,9.576 -0.227,0.705 0.279,0.087 1.14,-0.68 0.861,-0.768 2.022,-2.396 2.44,-2.227 0.418,0.17 1.018,1.69 1.989,2.271 0.972,0.58 1.559,-0.511 1.559,-0.511 0,0 -2.53,-0.07 -2.144,-1.641 0.386,-1.572 1.667,-2.248 1.667,-2.248 0,0 1.119,0.268 1.304,1.46 0.185,1.192 0.427,3.013 0.577,2.547 0,0 0.751,-2.194 1.007,-4.243 0.256,-2.05 0.085,-3.874 0.085,-3.874 0,0 2.399,-3.572 4.056,-5.345 1.656,-1.774 4.624,-2.403 5.311,-1.672 0.687,0.731 2.782,8.43 4.354,13.094 2.029,6.022 9.576,13.52 16.992,13.524"></path></g><g id="g66" transform="translate(401.6599,307.6315)"><path id="path64" style="fill:#3f4096;fill-opacity:1;fill-rule:nonzero;stroke:none" d="m 0,0 h 0.422 l 8.553,0.843 c -0.755,7.22 0.352,12.805 0.794,13.742 0.443,0.937 2.131,0.969 3.473,-1.995 1.341,-2.964 1.573,-5.185 3.271,-7.922 1.698,-2.737 5.448,-4.898 9.066,-3.495 3.617,1.402 5.953,5.292 9.657,10.647 3.704,5.356 5.329,8.87 5.555,9.576 0.227,0.705 -0.279,0.087 -1.14,-0.68 -0.861,-0.768 -2.022,-2.396 -2.44,-2.227 -0.418,0.17 -1.018,1.69 -1.989,2.271 -0.972,0.58 -1.559,-0.511 -1.559,-0.511 0,0 2.53,-0.07 2.144,-1.641 -0.386,-1.572 -1.667,-2.248 -1.667,-2.248 0,0 -1.119,0.268 -1.304,1.46 -0.185,1.192 -0.427,3.013 -0.577,2.547 0,0 -0.751,-2.194 -1.007,-4.243 -0.256,-2.05 -0.085,-3.874 -0.085,-3.874 0,0 -2.399,-3.572 -4.056,-5.345 C 25.455,5.131 22.487,4.502 21.8,5.233 21.113,5.964 19.018,13.663 17.446,18.327 15.417,24.349 7.87,31.847 0.454,31.851"></path></g></g></g></g></g></g></g></svg>